<svg width="1347" height="189" viewBox="0 0 1347 189" fill="none" xmlns="http://www.w3.org/2000/svg">
<g clip-path="url(#clip0_4_2)">
<path d="M80 98.27V119.36L0 89.83V68.89L80 39.36V60.45L20.94 78.66V80.06L80 98.27ZM268.21 89.83L188.21 119.36V98.27L246.8 80.06V78.66L188.21 60.45V39.36L268.21 68.89V89.83ZM1332.06 78.81C1328.1 78.81 1324.74 77.4167 1321.98 74.63C1319.22 71.8433 1317.84 68.4967 1317.84 64.59C1317.84 60.6367 1319.22 57.28 1321.98 54.52C1324.74 51.7533 1328.1 50.37 1332.06 50.37C1336.01 50.37 1339.37 51.7533 1342.13 54.52C1344.89 57.28 1346.27 60.6367 1346.27 64.59C1346.27 68.4967 1344.89 71.8433 1342.13 74.63C1339.37 77.4167 1336.01 78.81 1332.06 78.81ZM1334.95 168.81H1314.79L1321.04 114.91H1344.32L1334.95 168.81Z" fill="#EC5A2A"/>
<path d="M144.42 134.75H123.79V42.8H92.15V23.81H176.06V42.8H144.42V134.75ZM291.45 170.69L276.06 172.25L275.28 153.89L289.58 152.33C294.473 151.757 298.667 150.453 302.16 148.42C305.647 146.393 308.64 143.347 311.14 139.28C311.973 137.927 312.753 136.417 313.48 134.75H302.31L274.5 51.94H296.92L317.47 116.78H319.42L337.55 51.94H359.97L336.69 127.41C333.563 137.357 329.97 145.363 325.91 151.43C321.843 157.497 317.023 162.027 311.45 165.02C305.877 168.02 299.21 169.91 291.45 170.69ZM396.65 170.69H375.48V51.94H395.09L396.41 66.94H397.9C398.887 61.3667 401.01 57.2133 404.27 54.48C407.523 51.74 412.3 50.37 418.6 50.37C428.967 50.37 437 54.12 442.7 61.62C448.407 69.12 451.26 79.72 451.26 93.42C451.26 107.22 448.407 117.82 442.7 125.22C437 132.613 429.02 136.31 418.76 136.31C412.98 136.31 408.343 134.93 404.85 132.17C401.363 129.41 399.203 125.27 398.37 119.75H396.65V170.69ZM396.65 93.42C396.65 101.44 397.847 107.273 400.24 110.92C402.64 114.567 406.833 116.39 412.82 116.39C418.34 116.39 422.52 114.463 425.36 110.61C428.2 106.757 429.62 101.027 429.62 93.42C429.62 86.08 428.16 80.39 425.24 76.35C422.327 72.3167 418.187 70.3 412.82 70.3C407.453 70.3 403.417 72.1467 400.71 75.84C398.003 79.54 396.65 85.4 396.65 93.42ZM509.27 136.31C494.943 136.31 483.873 132.6 476.06 125.18C468.253 117.76 464.35 107.097 464.35 93.19C464.35 79.6433 467.67 69.12 474.31 61.62C480.95 54.12 490.31 50.37 502.39 50.37C514.217 50.37 523.357 53.8367 529.81 60.77C536.27 67.6967 539.5 77.7733 539.5 91C539.5 94.7467 539.343 98.3133 539.03 101.7H486.46C487.553 105.14 489.373 107.98 491.92 110.22C496.4 114.28 502.807 116.31 511.14 116.31C514.893 116.31 518.593 116.117 522.24 115.73C525.887 115.337 529.61 114.8 533.41 114.12L535.44 134.12C530.127 135.06 525.283 135.66 520.91 135.92C516.537 136.18 512.657 136.31 509.27 136.31ZM485.44 87.02H518.72C518.72 81.4467 517.3 77.1733 514.46 74.2C511.627 71.2333 507.657 69.75 502.55 69.75C497.03 69.75 492.76 71.7033 489.74 75.61C487.447 78.5233 486.013 82.3267 485.44 87.02ZM604.54 136.31C589.487 136.31 577.847 132.6 569.62 125.18C561.393 117.76 557.28 107.097 557.28 93.19C557.28 79.6433 561.03 69.12 568.53 61.62C576.03 54.12 586.733 50.37 600.64 50.37C609.18 50.37 616.51 52.0367 622.63 55.37C628.75 58.7033 633.087 63.42 635.64 69.52L620.32 81.7C618.033 78.1067 615.13 75.3333 611.61 73.38C608.097 71.4267 604.23 70.45 600.01 70.45C593.397 70.45 588.227 72.3533 584.5 76.16C580.78 79.96 578.92 85.3767 578.92 92.41C578.92 100.17 581.303 106.08 586.07 110.14C590.83 114.2 597.613 116.23 606.42 116.23C610.167 116.23 613.903 116.05 617.63 115.69C621.35 115.323 624.983 114.827 628.53 114.2L630.71 133.97C626.497 134.91 622.15 135.533 617.67 135.84C613.19 136.153 608.813 136.31 604.54 136.31ZM683.65 99.12V116.62H703.02V134.75H645.05V116.62H662.55V70.06H648.18V51.94H680.52L682.94 70.61H685.91C686.743 57.1167 693.8 50.37 707.08 50.37C714.947 50.37 720.977 53.2633 725.17 59.05C729.363 64.83 731.46 73.1633 731.46 84.05H710.36C710.36 79.15 709.463 75.6333 707.67 73.5C705.87 71.3667 702.993 70.3 699.04 70.3C693.88 70.3 690.023 72.8 687.47 77.8C684.923 82.8 683.65 89.9067 683.65 99.12ZM824.08 134.75L794.39 135.53L793.06 117.25H791.19C790.77 120.95 789.727 124.1 788.06 126.7C786.027 129.933 783.177 132.343 779.51 133.93C775.837 135.517 771.447 136.31 766.34 136.31C757.54 136.31 750.693 134.15 745.8 129.83C740.9 125.503 738.45 119.357 738.45 111.39C738.45 102.117 741.653 95.0067 748.06 90.06C754.467 85.1133 763.557 82.64 775.33 82.64C779.857 82.64 783.787 82.8733 787.12 83.34C788.84 83.6 790.56 83.9133 792.28 84.28V84.05C792.28 79.6233 790.393 76.38 786.62 74.32C782.84 72.26 777.227 71.1267 769.78 70.92L748.61 70.37L750.17 51.16L768.22 51.39C783.22 51.5967 794.363 54.5533 801.65 60.26C808.943 65.96 812.59 74.28 812.59 85.22V115.84L824.08 117.56V134.75ZM792.28 101.7C789.52 101.127 786.993 100.763 784.7 100.61C782.047 100.503 779.26 100.45 776.34 100.45C765.407 100.45 759.94 103.577 759.94 109.83C759.94 112.643 760.927 114.79 762.9 116.27C764.88 117.757 767.773 118.5 771.58 118.5C776.16 118.5 779.987 117.64 783.06 115.92C786.133 114.2 788.45 112.013 790.01 109.36C791.417 106.86 792.173 104.307 792.28 101.7ZM874.66 134.75H853.57V86.55H828.41V68.42H853.57V58.97C853.57 30.3233 867.397 16 895.05 16C901.457 16 907.63 16.52 913.57 17.56L911.54 37.17C908.047 36.7567 904.96 36.47 902.28 36.31C899.6 36.1567 897.037 36.08 894.59 36.08C881.303 36.08 874.66 43.45 874.66 58.19V68.42H907.63V86.55H874.66V134.75ZM981.03 136.31C966.763 136.31 956.453 133.447 950.1 127.72C943.74 121.987 940.56 112.82 940.56 100.22V71.39H920.72V51.94H940.56V26.94H961.66V51.94H998.38V71.39H961.66V98.19C961.66 104.49 963.287 109.073 966.54 111.94C969.793 114.8 975.147 116.23 982.6 116.23C984.993 116.23 987.557 116.087 990.29 115.8C993.023 115.513 996.137 115.137 999.63 114.67L1001.5 134.44C998.067 135.067 994.72 135.533 991.46 135.84C988.207 136.153 984.73 136.31 981.03 136.31ZM1062.17 136.31C1047.84 136.31 1036.77 132.6 1028.96 125.18C1021.15 117.76 1017.25 107.097 1017.25 93.19C1017.25 79.6433 1020.57 69.12 1027.21 61.62C1033.85 54.12 1043.21 50.37 1055.29 50.37C1067.12 50.37 1076.26 53.8367 1082.71 60.77C1089.17 67.6967 1092.4 77.7733 1092.4 91C1092.4 94.7467 1092.24 98.3133 1091.93 101.7H1039.35C1040.45 105.14 1042.27 107.98 1044.82 110.22C1049.3 114.28 1055.71 116.31 1064.04 116.31C1067.79 116.31 1071.49 116.117 1075.14 115.73C1078.78 115.337 1082.5 114.8 1086.31 114.12L1088.34 134.12C1083.03 135.06 1078.18 135.66 1073.81 135.92C1069.44 136.18 1065.56 136.31 1062.17 136.31ZM1038.34 87.02H1071.62C1071.62 81.4467 1070.2 77.1733 1067.36 74.2C1064.52 71.2333 1060.55 69.75 1055.45 69.75C1049.93 69.75 1045.66 71.7033 1042.64 75.61C1040.35 78.5233 1038.91 82.3267 1038.34 87.02ZM1144.4 99.12V116.62H1163.77V134.75H1105.8V116.62H1123.3V70.06H1108.93V51.94H1141.27L1143.69 70.61H1146.66C1147.49 57.1167 1154.55 50.37 1167.83 50.37C1175.7 50.37 1181.73 53.2633 1185.92 59.05C1190.11 64.83 1192.21 73.1633 1192.21 84.05H1171.11C1171.11 79.15 1170.21 75.6333 1168.42 73.5C1166.62 71.3667 1163.74 70.3 1159.79 70.3C1154.63 70.3 1150.77 72.8 1148.22 77.8C1145.67 82.8 1144.4 89.9067 1144.4 99.12ZM1233.5 136.31C1227.2 136.31 1221.61 136.117 1216.74 135.73C1211.87 135.337 1207.59 134.75 1203.89 133.97L1206.39 113.73C1212.95 114.563 1218.47 115.19 1222.95 115.61C1227.43 116.023 1230.95 116.23 1233.5 116.23C1240.58 116.23 1245.71 115.75 1248.89 114.79C1252.07 113.823 1253.66 112.273 1253.66 110.14C1253.66 108.893 1253.27 107.903 1252.48 107.17C1251.7 106.443 1250.45 105.82 1248.73 105.3L1221.78 97.48C1216.26 95.8667 1212.11 93.4067 1209.32 90.1C1206.53 86.7933 1205.14 82.3533 1205.14 76.78C1205.14 67.8733 1208.89 61.2467 1216.39 56.9C1223.89 52.5467 1235.27 50.37 1250.53 50.37C1254.07 50.37 1257.75 50.5033 1261.58 50.77C1265.41 51.03 1269.46 51.42 1273.73 51.94L1271.47 71.55C1266.73 71.13 1262.59 70.8433 1259.05 70.69C1255.5 70.53 1252.51 70.45 1250.06 70.45C1241.89 70.45 1235.96 70.9067 1232.29 71.82C1228.62 72.7333 1226.78 74.23 1226.78 76.31C1226.78 77.6167 1227.16 78.62 1227.91 79.32C1228.67 80.02 1229.86 80.6067 1231.47 81.08L1254.67 87.48C1261.8 89.4067 1267.13 92.2067 1270.65 95.88C1274.16 99.5533 1275.92 104.333 1275.92 110.22C1275.92 119.02 1272.43 125.57 1265.45 129.87C1258.47 134.163 1247.82 136.31 1233.5 136.31Z" fill="#F4F0E7"/>
</g>
<defs>
<clipPath id="clip0_4_2">
<rect width="1346.27" height="188.25" fill="white"/>
</clipPath>
</defs>
</svg>
